# This file uses centimeters as units for non-parametric coordinates.

mtllib èùöä.mtl
g default
v 1.361153 0.000000 -0.442266
v 1.157866 0.000000 -0.841239
v 0.841239 0.000000 -1.157866
v 0.442265 0.000000 -1.361152
v -0.000000 0.000000 -1.431201
v -0.442266 0.000000 -1.361152
v -0.841239 0.000000 -1.157866
v -1.157865 0.000000 -0.841238
v -1.361154 0.000000 -0.442265
v -1.431200 0.000000 0.000000
v -1.361154 0.000000 0.442265
v -1.157865 0.000000 0.841238
v -0.841239 0.000000 1.157866
v -0.442266 0.000000 1.361152
v -0.000000 0.000000 1.431201
v 0.442265 0.000000 1.361152
v 0.841238 0.000000 1.157865
v 1.157865 0.000000 0.841238
v 1.361152 0.000000 0.442265
v 1.431200 0.000000 0.000000
v 1.016550 0.751139 -0.330297
v 0.864729 0.751139 -0.628262
v 0.628262 0.751139 -0.864729
v 0.330297 0.751139 -1.016550
v 0.000000 0.751139 -1.068863
v -0.330297 0.751139 -1.016550
v -0.628262 0.751139 -0.864729
v -0.864729 0.751139 -0.628262
v -1.016549 0.751139 -0.330297
v -1.068863 0.751139 0.000000
v -1.016549 0.751139 0.330297
v -0.864728 0.751139 0.628262
v -0.628262 0.751139 0.864728
v -0.330297 0.751139 1.016549
v -0.000000 0.751139 1.068863
v 0.330297 0.751139 1.016549
v 0.628262 0.751139 0.864728
v 0.864728 0.751139 0.628262
v 1.016549 0.751139 0.330297
v 1.068863 0.751139 0.000000
v -0.000000 0.000000 0.000000
v 0.860734 0.751139 -0.279669
v 0.732184 0.751139 -0.531963
v 0.531963 0.751139 -0.732184
v 0.279669 0.751139 -0.860734
v -0.000000 0.751139 -0.905029
v -0.279669 0.751139 -0.860734
v -0.531963 0.751139 -0.732184
v -0.732184 0.751139 -0.531963
v -0.860734 0.751139 -0.279669
v -0.905029 0.751139 -0.000000
v -0.860734 0.751139 0.279669
v -0.732184 0.751139 0.531963
v -0.531963 0.751139 0.732184
v -0.279669 0.751139 0.860734
v -0.000000 0.751139 0.905029
v 0.279669 0.751139 0.860734
v 0.531963 0.751139 0.732184
v 0.732184 0.751139 0.531963
v 0.860734 0.751139 0.279669
v 0.905029 0.751139 -0.000000
v 0.860734 0.133842 -0.279669
v 0.732184 0.133842 -0.531963
v -0.000000 0.133842 -0.000000
v 0.531963 0.133842 -0.732184
v 0.279669 0.133842 -0.860734
v -0.000000 0.133842 -0.905029
v -0.279669 0.133842 -0.860734
v -0.531963 0.133842 -0.732184
v -0.732184 0.133842 -0.531963
v -0.860734 0.133842 -0.279669
v -0.905029 0.133842 -0.000000
v -0.860734 0.133842 0.279669
v -0.732184 0.133842 0.531963
v -0.531963 0.133842 0.732184
v -0.279669 0.133842 0.860734
v -0.000000 0.133842 0.905029
v 0.279669 0.133842 0.860734
v 0.531963 0.133842 0.732184
v 0.732184 0.133842 0.531963
v 0.860734 0.133842 0.279669
v 0.905029 0.133842 -0.000000
vt 0.356709 0.038666
vt 0.411963 0.017108
vt 0.423054 0.132641
vt 0.381789 0.148740
vt 0.455813 0.000000
vt 0.455802 0.119864
vt 0.295460 0.062562
vt 0.336046 0.166587
vt 0.234211 0.086459
vt 0.290303 0.184434
vt 0.178957 0.108016
vt 0.249038 0.200534
vt 0.135108 0.125124
vt 0.216290 0.213310
vt 0.732649 0.108066
vt 0.768356 0.155423
vt 0.689219 0.235938
vt 0.662551 0.200570
vt 0.807938 0.207918
vt 0.718779 0.275144
vt 0.704311 0.070483
vt 0.641388 0.172502
vt 0.847519 0.260414
vt 0.748340 0.314349
vt 0.883226 0.307771
vt 0.775007 0.349717
vt 0.911564 0.345354
vt 0.796170 0.377785
vt 0.753376 0.786108
vt 0.717249 0.786589
vt 0.716074 0.698194
vt 0.752201 0.697713
vt 0.688578 0.786970
vt 0.687403 0.698575
vt 0.793424 0.785576
vt 0.792249 0.697181
vt 0.833472 0.785044
vt 0.832297 0.696649
vt 0.869600 0.784563
vt 0.868425 0.696168
vt 0.898271 0.784182
vt 0.897096 0.695787
vt 0.507556 0.789377
vt 0.471428 0.789857
vt 0.470253 0.701462
vt 0.506380 0.700982
vt 0.431381 0.790390
vt 0.430205 0.701995
vt 0.536227 0.788996
vt 0.535052 0.700601
vt 0.391333 0.790923
vt 0.390157 0.702528
vt 0.355205 0.791403
vt 0.354029 0.703008
vt 0.326534 0.791785
vt 0.325358 0.703390
vt 0.657702 0.354271
vt 0.638977 0.411900
vt 0.466412 0.323973
vt 0.603361 0.460922
vt 0.657702 0.293676
vt 0.554338 0.496539
vt 0.638977 0.236047
vt 0.496709 0.515264
vt 0.603361 0.187024
vt 0.436114 0.515264
vt 0.554338 0.151408
vt 0.378485 0.496539
vt 0.496709 0.132683
vt 0.329463 0.460923
vt 0.436114 0.132683
vt 0.293846 0.411900
vt 0.378485 0.151408
vt 0.275121 0.354271
vt 0.329463 0.187025
vt 0.275121 0.293676
vt 0.293846 0.236047
vt 0.796614 0.597344
vt 0.760172 0.609185
vt 0.741013 0.488221
vt 0.721854 0.609185
vt 0.827613 0.574822
vt 0.685412 0.597344
vt 0.850136 0.543822
vt 0.654412 0.574822
vt 0.861977 0.507380
vt 0.631890 0.543822
vt 0.861977 0.469062
vt 0.620049 0.507380
vt 0.850136 0.432620
vt 0.620049 0.469062
vt 0.827613 0.401620
vt 0.631890 0.432620
vt 0.796614 0.379098
vt 0.654412 0.401620
vt 0.760172 0.367257
vt 0.685412 0.379098
vt 0.721854 0.367257
vt 0.245484 0.637082
vt 0.202445 0.651066
vt 0.198977 0.629168
vt 0.235419 0.617328
vt 0.157191 0.651066
vt 0.160659 0.629168
vt 0.282096 0.610482
vt 0.266419 0.594805
vt 0.114152 0.637082
vt 0.124217 0.617328
vt 0.308695 0.573871
vt 0.288941 0.563805
vt 0.077541 0.610482
vt 0.093217 0.594805
vt 0.322680 0.530831
vt 0.300782 0.527363
vt 0.050941 0.573871
vt 0.070695 0.563805
vt 0.322680 0.485577
vt 0.300782 0.489046
vt 0.036957 0.530831
vt 0.058854 0.527363
vt 0.308695 0.442538
vt 0.288941 0.452603
vt 0.036957 0.485577
vt 0.058854 0.489046
vt 0.282096 0.405927
vt 0.266419 0.421604
vt 0.050941 0.442538
vt 0.070695 0.452603
vt 0.245484 0.379327
vt 0.235419 0.399081
vt 0.077541 0.405927
vt 0.093218 0.421604
vt 0.202445 0.365343
vt 0.198977 0.387240
vt 0.114152 0.379327
vt 0.124217 0.399081
vt 0.157191 0.365343
vt 0.160659 0.387240
vt 0.514740 0.016714
vt 0.499811 0.132346
vt 0.580062 0.035241
vt 0.548595 0.146183
vt 0.645384 0.053769
vt 0.597379 0.160020
vt 0.000000 0.345273
vt 0.032039 0.293068
vt 0.139315 0.338736
vt 0.115387 0.377724
vt 0.067554 0.235199
vt 0.165839 0.295517
vt 0.103069 0.177329
vt 0.192363 0.252299
vt 0.652450 0.787450
vt 0.651275 0.699055
vt 0.612402 0.787983
vt 0.611227 0.699588
vt 0.572355 0.788515
vt 0.571179 0.700120
vt 0.290406 0.792265
vt 0.289231 0.703870
vt 0.250359 0.792798
vt 0.249183 0.704403
vt 0.210311 0.793330
vt 0.209135 0.704935
vt 0.174183 0.793811
vt 0.173007 0.705416
vn 0.856601 0.434475 -0.278326
vn 0.728668 0.434476 -0.529408
vn 0.728668 0.434476 -0.529408
vn 0.856601 0.434476 -0.278326
vn 0.529408 0.434476 -0.728669
vn 0.529408 0.434476 -0.728669
vn 0.278326 0.434475 -0.856601
vn 0.278326 0.434475 -0.856601
vn -0.000000 0.434476 -0.900684
vn 0.000000 0.434476 -0.900684
vn -0.278327 0.434475 -0.856601
vn -0.278327 0.434476 -0.856601
vn -0.529409 0.434475 -0.728668
vn -0.529409 0.434475 -0.728668
vn -0.728668 0.434475 -0.529409
vn -0.728668 0.434475 -0.529409
vn -0.856601 0.434476 -0.278326
vn -0.856601 0.434476 -0.278326
vn -0.900684 0.434476 0.000000
vn -0.900684 0.434475 0.000000
vn -0.856601 0.434476 0.278326
vn -0.856601 0.434476 0.278326
vn -0.728668 0.434475 0.529409
vn -0.728668 0.434475 0.529409
vn -0.529409 0.434475 0.728669
vn -0.529409 0.434475 0.728668
vn -0.278327 0.434475 0.856601
vn -0.278327 0.434475 0.856601
vn -0.000000 0.434476 0.900684
vn 0.000000 0.434476 0.900684
vn 0.278327 0.434475 0.856601
vn 0.278327 0.434475 0.856601
vn 0.529409 0.434475 0.728669
vn 0.529409 0.434475 0.728669
vn 0.728668 0.434475 0.529409
vn 0.728668 0.434475 0.529409
vn 0.856601 0.434475 0.278327
vn 0.856601 0.434475 0.278326
vn 0.900684 0.434475 0.000001
vn 0.900684 0.434475 0.000001
vn 0.000000 -1.000000 0.000000
vn 0.000000 -1.000000 0.000000
vn 0.000000 -1.000000 0.000000
vn 0.000000 -1.000000 0.000000
vn 0.000000 -1.000000 0.000000
vn 0.000000 -1.000000 0.000000
vn 0.000000 -1.000000 0.000000
vn 0.000000 -1.000000 0.000000
vn 0.000000 -1.000000 0.000000
vn 0.000000 -1.000000 0.000000
vn 0.000000 -1.000000 0.000000
vn 0.000000 -1.000000 0.000000
vn 0.000000 -1.000000 0.000000
vn 0.000000 -1.000000 0.000000
vn 0.000000 -1.000000 0.000000
vn 0.000000 -1.000000 0.000000
vn 0.000000 -1.000000 0.000000
vn 0.000000 -1.000000 0.000000
vn 0.000000 -1.000000 0.000000
vn 0.000000 -1.000000 0.000000
vn 0.000000 -1.000000 0.000000
vn 0.000000 1.000000 0.000000
vn 0.000000 1.000000 0.000000
vn 0.000000 1.000000 0.000000
vn 0.000000 1.000000 0.000000
vn 0.000000 1.000000 0.000000
vn 0.000000 1.000000 0.000000
vn 0.000000 1.000000 0.000000
vn 0.000000 1.000000 0.000000
vn 0.000000 1.000000 0.000000
vn 0.000000 1.000000 0.000000
vn 0.000000 1.000000 0.000000
vn 0.000000 1.000000 0.000000
vn 0.000000 1.000000 0.000000
vn 0.000000 1.000000 0.000000
vn 0.000000 1.000000 0.000000
vn 0.000000 1.000000 -0.000000
vn 0.000000 1.000000 -0.000000
vn 0.000000 1.000000 0.000000
vn 0.000000 1.000000 0.000000
vn 0.000000 1.000000 -0.000000
vn 0.000000 1.000000 -0.000000
vn 0.000000 1.000000 -0.000000
vn 0.000000 1.000000 -0.000000
vn 0.000000 1.000000 -0.000000
vn 0.000000 1.000000 -0.000000
vn 0.000000 1.000000 0.000000
vn 0.000000 1.000000 0.000000
vn 0.000000 1.000000 0.000000
vn 0.000000 1.000000 0.000000
vn 0.000000 1.000000 -0.000000
vn 0.000000 1.000000 -0.000000
vn 0.000000 1.000000 -0.000000
vn 0.000000 1.000000 -0.000000
vn 0.000000 1.000000 0.000000
vn 0.000000 1.000000 0.000000
vn 0.000000 1.000000 0.000000
vn 0.000000 1.000000 0.000000
vn 0.000000 1.000000 -0.000000
vn 0.000000 1.000000 -0.000000
vn 0.000000 1.000000 -0.000000
vn 0.000000 1.000000 -0.000000
vn 0.000000 1.000000 0.000000
vn 0.000000 1.000000 0.000000
vn 0.000000 1.000000 0.000000
vn 0.000000 1.000000 0.000000
vn 0.000000 1.000000 -0.000000
vn 0.000000 1.000000 -0.000000
vn 0.000000 1.000000 -0.000000
vn 0.000000 1.000000 -0.000000
vn 0.000000 1.000000 0.000000
vn 0.000000 1.000000 0.000000
vn 0.000000 1.000000 0.000000
vn 0.000000 1.000000 0.000000
vn 0.000000 1.000000 0.000000
vn 0.000000 1.000000 0.000000
vn 0.000000 1.000000 0.000000
vn 0.000000 1.000000 0.000000
vn 0.000000 1.000000 -0.000000
vn 0.000000 1.000000 -0.000000
vn 0.000000 1.000000 -0.000000
vn 0.000000 1.000000 -0.000000
vn 0.000000 1.000000 0.000000
vn 0.000000 1.000000 0.000000
vn 0.000000 1.000000 0.000000
vn 0.000000 1.000000 0.000000
vn 0.000000 1.000000 0.000000
vn 0.000000 1.000000 0.000000
vn 0.000000 1.000000 0.000000
vn 0.000000 1.000000 0.000000
vn 0.000000 1.000000 -0.000000
vn 0.000000 1.000000 -0.000000
vn 0.000000 1.000000 -0.000000
vn 0.000000 1.000000 -0.000000
vn 0.000000 1.000000 0.000000
vn 0.000000 1.000000 0.000000
vn 0.000000 1.000000 0.000000
vn 0.000000 1.000000 0.000000
vn 0.000000 1.000000 -0.000001
vn 0.000000 1.000000 -0.000001
vn 0.000000 1.000000 -0.000001
vn 0.000000 1.000000 -0.000001
vn 0.000000 1.000000 -0.000000
vn 0.000000 1.000000 -0.000000
vn 0.000000 1.000000 -0.000000
vn 0.000000 1.000000 -0.000000
vn 0.000000 1.000000 0.000000
vn 0.000000 1.000000 0.000000
vn 0.000000 1.000000 0.000000
vn 0.000000 1.000000 0.000000
vn 0.000000 1.000000 0.000000
vn 0.000000 1.000000 0.000000
vn 0.000000 1.000000 0.000000
vn 0.000000 1.000000 0.000000
vn 0.000000 1.000000 0.000000
vn 0.000000 1.000000 0.000000
vn 0.000000 1.000000 0.000000
vn 0.000000 1.000000 0.000000
vn 0.000000 1.000000 0.000000
vn 0.000000 1.000000 0.000000
vn 0.000000 1.000000 0.000000
vn 0.000000 1.000000 0.000000
vn -0.891007 0.000000 0.453990
vn -0.891007 0.000000 0.453990
vn -0.891007 0.000000 0.453990
vn -0.891007 0.000000 0.453990
vn -0.707107 0.000000 0.707107
vn -0.707107 0.000000 0.707107
vn -0.707107 0.000000 0.707107
vn -0.707107 0.000000 0.707107
vn -0.453990 0.000000 0.891007
vn -0.453990 0.000000 0.891007
vn -0.453990 0.000000 0.891007
vn -0.453990 0.000000 0.891007
vn -0.156434 0.000000 0.987688
vn -0.156434 0.000000 0.987688
vn -0.156434 0.000000 0.987688
vn -0.156434 0.000000 0.987688
vn 0.156434 0.000000 0.987688
vn 0.156434 0.000000 0.987688
vn 0.156434 0.000000 0.987688
vn 0.156434 0.000000 0.987688
vn 0.453991 0.000000 0.891006
vn 0.453991 0.000000 0.891006
vn 0.453991 0.000000 0.891006
vn 0.453991 0.000000 0.891006
vn 0.707107 0.000000 0.707107
vn 0.707107 0.000000 0.707107
vn 0.707107 0.000000 0.707107
vn 0.707107 0.000000 0.707107
vn 0.891007 0.000000 0.453990
vn 0.891007 0.000000 0.453990
vn 0.891007 0.000000 0.453990
vn 0.891007 0.000000 0.453990
vn 0.987688 0.000000 0.156434
vn 0.987688 0.000000 0.156434
vn 0.987688 0.000000 0.156434
vn 0.987688 0.000000 0.156434
vn 0.987688 0.000000 -0.156434
vn 0.987688 0.000000 -0.156434
vn 0.987688 0.000000 -0.156434
vn 0.987688 0.000000 -0.156434
vn 0.891007 0.000000 -0.453991
vn 0.891007 0.000000 -0.453991
vn 0.891007 0.000000 -0.453991
vn 0.891007 0.000000 -0.453991
vn 0.707107 0.000000 -0.707107
vn 0.707107 0.000000 -0.707107
vn 0.707107 0.000000 -0.707107
vn 0.707107 0.000000 -0.707107
vn 0.453990 0.000000 -0.891007
vn 0.453990 0.000000 -0.891007
vn 0.453990 0.000000 -0.891007
vn 0.453990 0.000000 -0.891007
vn 0.156435 0.000000 -0.987688
vn 0.156435 0.000000 -0.987688
vn 0.156435 0.000000 -0.987688
vn 0.156435 0.000000 -0.987688
vn -0.156435 0.000000 -0.987688
vn -0.156435 0.000000 -0.987688
vn -0.156435 0.000000 -0.987688
vn -0.156435 0.000000 -0.987688
vn -0.453991 0.000000 -0.891007
vn -0.453991 0.000000 -0.891007
vn -0.453991 0.000000 -0.891007
vn -0.453991 0.000000 -0.891007
vn -0.707107 0.000000 -0.707107
vn -0.707107 0.000000 -0.707107
vn -0.707107 0.000000 -0.707107
vn -0.707107 0.000000 -0.707107
vn -0.891007 0.000000 -0.453990
vn -0.891007 0.000000 -0.453990
vn -0.891007 0.000000 -0.453990
vn -0.891007 0.000000 -0.453990
vn -0.987688 0.000000 -0.156434
vn -0.987688 0.000000 -0.156434
vn -0.987688 0.000000 -0.156434
vn -0.987688 0.000000 -0.156434
vn -0.987689 0.000000 0.156432
vn -0.987689 0.000000 0.156432
vn -0.987689 0.000000 0.156432
vn -0.987689 0.000000 0.156432
s 1
g pCylinder1
usemtl initialShadingGroup
f 1/1/1 2/2/2 22/3/3 21/4/4
f 2/2/2 3/5/5 23/6/6 22/3/3
f 3/5/5 4/139/7 24/140/8 23/6/6
f 4/139/7 5/141/9 25/142/10 24/140/8
f 5/141/9 6/143/11 26/144/12 25/142/10
f 6/143/11 7/21/13 27/22/14 26/144/12
f 7/21/13 8/15/15 28/18/16 27/22/14
f 8/15/15 9/16/17 29/17/18 28/18/16
f 9/16/17 10/19/19 30/20/20 29/17/18
f 10/19/19 11/23/21 31/24/22 30/20/20
f 11/23/21 12/25/23 32/26/24 31/24/22
f 12/25/23 13/27/25 33/28/26 32/26/24
f 13/145/25 14/146/27 34/147/28 33/148/26
f 14/146/27 15/149/29 35/150/30 34/147/28
f 15/149/29 16/151/31 36/152/32 35/150/30
f 16/151/31 17/13/33 37/14/34 36/152/32
f 17/13/33 18/11/35 38/12/36 37/14/34
f 18/11/35 19/9/37 39/10/38 38/12/36
f 19/9/37 20/7/39 40/8/40 39/10/38
f 20/7/39 1/1/1 21/4/4 40/8/40
s 2
f 2/57/41 1/58/42 41/59/43
f 3/61/44 2/57/41 41/59/43
f 4/63/45 3/61/44 41/59/43
f 5/65/46 4/63/45 41/59/43
f 6/67/47 5/65/46 41/59/43
f 7/69/48 6/67/47 41/59/43
f 8/71/49 7/69/48 41/59/43
f 9/73/50 8/71/49 41/59/43
f 10/75/51 9/73/50 41/59/43
f 11/77/52 10/75/51 41/59/43
f 12/76/53 11/77/52 41/59/43
f 13/74/54 12/76/53 41/59/43
f 14/72/55 13/74/54 41/59/43
f 15/70/56 14/72/55 41/59/43
f 16/68/57 15/70/56 41/59/43
f 17/66/58 16/68/57 41/59/43
f 18/64/59 17/66/58 41/59/43
f 19/62/60 18/64/59 41/59/43
f 20/60/61 19/62/60 41/59/43
f 1/58/42 20/60/61 41/59/43
s 3
f 62/78/62 63/79/63 64/80/64
f 63/79/63 65/81/65 64/80/64
f 65/81/65 66/83/66 64/80/64
f 66/83/66 67/85/67 64/80/64
f 67/85/67 68/87/68 64/80/64
f 68/87/68 69/89/69 64/80/64
f 69/89/69 70/91/70 64/80/64
f 70/91/70 71/93/71 64/80/64
f 71/93/71 72/95/72 64/80/64
f 72/95/72 73/97/73 64/80/64
f 73/97/73 74/98/74 64/80/64
f 74/98/74 75/96/75 64/80/64
f 75/96/75 76/94/76 64/80/64
f 76/94/76 77/92/77 64/80/64
f 77/92/77 78/90/78 64/80/64
f 78/90/78 79/88/79 64/80/64
f 79/88/79 80/86/80 64/80/64
f 80/86/80 81/84/81 64/80/64
f 81/84/81 82/82/82 64/80/64
f 82/82/82 62/78/62 64/80/64
s off
f 21/99/83 22/100/84 43/101/85 42/102/86
f 22/100/87 23/103/88 44/104/89 43/101/90
f 23/103/91 24/107/92 45/108/93 44/104/94
f 24/107/95 25/111/96 46/112/97 45/108/98
f 25/111/99 26/115/100 47/116/101 46/112/102
f 26/115/103 27/119/104 48/120/105 47/116/106
f 27/119/107 28/123/108 49/124/109 48/120/110
f 28/123/111 29/127/112 50/128/113 49/124/114
f 29/127/115 30/131/116 51/132/117 50/128/118
f 30/131/119 31/135/120 52/136/121 51/132/122
f 31/135/123 32/137/124 53/138/125 52/136/126
f 32/137/127 33/133/128 54/134/129 53/138/130
f 33/133/131 34/129/132 55/130/133 54/134/134
f 34/129/135 35/125/136 56/126/137 55/130/138
f 35/125/139 36/121/140 57/122/141 56/126/142
f 36/121/143 37/117/144 58/118/145 57/122/146
f 37/117/147 38/113/148 59/114/149 58/118/150
f 38/113/151 39/109/152 60/110/153 59/114/154
f 39/109/155 40/105/156 61/106/157 60/110/158
f 40/105/159 21/99/160 42/102/161 61/106/162
f 42/29/163 43/30/164 63/31/165 62/32/166
f 43/30/167 44/33/168 65/34/169 63/31/170
f 44/33/171 45/153/172 66/154/173 65/34/174
f 45/153/175 46/155/176 67/156/177 66/154/178
f 46/155/179 47/157/180 68/158/181 67/156/182
f 47/157/183 48/49/184 69/50/185 68/158/186
f 48/49/187 49/43/188 70/46/189 69/50/190
f 49/43/191 50/44/192 71/45/193 70/46/194
f 50/44/195 51/47/196 72/48/197 71/45/198
f 51/47/199 52/51/200 73/52/201 72/48/202
f 52/51/203 53/53/204 74/54/205 73/52/206
f 53/53/207 54/55/208 75/56/209 74/54/210
f 54/55/211 55/159/212 76/160/213 75/56/214
f 55/159/215 56/161/216 77/162/217 76/160/218
f 56/161/219 57/163/220 78/164/221 77/162/222
f 57/163/223 58/165/224 79/166/225 78/164/226
f 58/41/227 59/39/228 80/40/229 79/42/230
f 59/39/231 60/37/232 81/38/233 80/40/234
f 60/37/235 61/35/236 82/36/237 81/38/238
f 61/35/239 42/29/240 62/32/241 82/36/242
